<svg xmlns="http://www.w3.org/2000/svg" viewBox="0 0 24 24" fill="none" stroke="#FFFFFF" stroke-width="1.5" stroke-linecap="round" stroke-linejoin="round">
  <circle cx="12" cy="12" r="1.5" fill="#FFFFFF"/>
  <path d="M12 7a5 5 0 0 1 5 5" stroke-width="1.5"/>
  <path d="M7 12a5 5 0 0 1 5-5" stroke-width="1.5"/>
  <path d="M12 17a5 5 0 0 1-5-5" stroke-width="1.5"/>
  <path d="M17 12a5 5 0 0 1-5 5" stroke-width="1.5"/>
  <!-- Outer waves -->
  <path d="M12 4a8 8 0 0 1 8 8" stroke-width="1" stroke-dasharray="2 2"/>
  <path d="M4 12a8 8 0 0 1 8-8" stroke-width="1" stroke-dasharray="2 2"/>
  <path d="M12 20a8 8 0 0 1-8-8" stroke-width="1" stroke-dasharray="2 2"/>
  <path d="M20 12a8 8 0 0 1-8 8" stroke-width="1" stroke-dasharray="2 2"/>
</svg>
