<svg xmlns="http://www.w3.org/2000/svg" viewBox="0 0 24 24" fill="#FFFFFF">
  <path d="M12 2C6.48 2 2 6.48 2 12c0 2.76 1.12 5.26 2.93 7.07l1.41-1.41C4.95 16.27 4 14.24 4 12c0-4.42 3.58-8 8-8s8 3.58 8 8c0 2.24-.95 4.27-2.34 5.66l1.41 1.41C20.88 17.26 22 14.76 22 12c0-5.52-4.48-10-10-10zm0 4c-3.31 0-6 2.69-6 6 0 1.66.68 3.16 1.76 4.24l1.42-1.42C8.45 14.07 8 13.09 8 12c0-2.21 1.79-4 4-4s4 1.79 4 4c0 1.09-.45 2.07-1.18 2.82l1.42 1.42C17.32 15.16 18 13.66 18 12c0-3.31-2.69-6-6-6zm0 4c-1.1 0-2 .9-2 2s.9 2 2 2 2-.9 2-2-.9-2-2-2z"/>
</svg>
