<svg xmlns="http://www.w3.org/2000/svg" viewBox="0 0 24 24" fill="none" stroke="#FFFFFF" stroke-width="1.5" stroke-linecap="round" stroke-linejoin="round">
  <circle cx="12" cy="12" r="1.5" fill="#FFFFFF"/>
  <path d="M12 8a4 4 0 0 1 4 4" stroke-width="1.5"/>
  <path d="M8 12a4 4 0 0 1 4-4" stroke-width="1.5"/>
  <path d="M12 16a4 4 0 0 1-4-4" stroke-width="1.5"/>
  <path d="M16 12a4 4 0 0 1-4 4" stroke-width="1.5"/>
  <!-- Mid waves -->
  <path d="M12 5a7 7 0 0 1 7 7" stroke-width="1" stroke-dasharray="2 2"/>
  <path d="M5 12a7 7 0 0 1 7-7" stroke-width="1" stroke-dasharray="2 2"/>
  <path d="M12 19a7 7 0 0 1-7-7" stroke-width="1" stroke-dasharray="2 2"/>
  <path d="M19 12a7 7 0 0 1-7 7" stroke-width="1" stroke-dasharray="2 2"/>
  <!-- Outer waves -->
  <path d="M12 2a10 10 0 0 1 10 10" stroke-width="1"/>
  <path d="M2 12a10 10 0 0 1 10-10" stroke-width="1"/>
  <path d="M12 22a10 10 0 0 1-10-10" stroke-width="1"/>
  <path d="M22 12a10 10 0 0 1-10 10" stroke-width="1"/>
</svg>
